<?xml version="1.0" encoding="utf-8" standalone="no"?>
<!DOCTYPE svg PUBLIC "-//W3C//DTD SVG 1.1//EN"
  "http://www.w3.org/Graphics/SVG/1.1/DTD/svg11.dtd">
<svg xmlns:xlink="http://www.w3.org/1999/xlink" width="184.94pt" height="161.612pt" viewBox="0 0 184.94 161.612" xmlns="http://www.w3.org/2000/svg" version="1.1">
 <metadata>
  <rdf:RDF xmlns:dc="http://purl.org/dc/elements/1.1/" xmlns:cc="http://creativecommons.org/ns#" xmlns:rdf="http://www.w3.org/1999/02/22-rdf-syntax-ns#">
   <cc:Work>
    <dc:type rdf:resource="http://purl.org/dc/dcmitype/StillImage"/>
    <dc:date>2026-06-08T17:56:32.880679</dc:date>
    <dc:format>image/svg+xml</dc:format>
    <dc:creator>
     <cc:Agent>
      <dc:title>Matplotlib v3.5.3, https://matplotlib.org/</dc:title>
     </cc:Agent>
    </dc:creator>
   </cc:Work>
  </rdf:RDF>
 </metadata>
 <defs>
  <style type="text/css">*{stroke-linejoin: round; stroke-linecap: butt}</style>
 </defs>
 <g id="figure_1">
  <g id="patch_1">
   <path d="M 0 161.612 
L 184.94 161.612 
L 184.94 0 
L 0 0 
L 0 161.612 
z
" style="fill: none"/>
  </g>
  <g id="axes_1">
   <g id="patch_2">
    <path d="M 4.94 156.672 
L 183.5 156.672 
L 183.5 1.44 
L 4.94 1.44 
L 4.94 156.672 
z
" style="fill: none"/>
   </g>
   <g id="matplotlib.axis_1"/>
   <g id="matplotlib.axis_2"/>
   <g id="line2d_1">
    <path d="M 4.94 7.335831 
L 14.915419 8.981534 
L 16.910503 9.65264 
L 19.903128 10.982214 
L 26.885922 14.403041 
L 29.878547 15.51436 
L 32.871173 16.283721 
L 35.863799 16.740773 
L 38.856425 16.927378 
L 42.846592 16.871781 
L 52.822011 16.478476 
L 55.814637 16.655936 
L 58.807263 17.086895 
L 62.79743 17.957536 
L 70.777765 19.836573 
L 73.770391 20.290657 
L 86.738436 21.751979 
L 91.726145 22.012012 
L 95.716313 22.00321 
L 98.708939 21.719851 
L 101.701564 21.168437 
L 108.684358 19.70575 
L 115.667151 18.382258 
L 120.65486 17.39611 
L 123.647486 17.025165 
L 125.64257 16.97738 
L 127.637654 17.166103 
L 129.632737 17.651855 
L 131.627821 18.459814 
L 133.622905 19.548134 
L 139.608156 23.199751 
L 142.600782 24.588825 
L 146.59095 26.055024 
L 155.568827 29.046413 
L 158.561453 29.865878 
L 167.53933 31.981585 
L 170.531955 33.024833 
L 173.524581 34.081883 
L 174.522123 34.277538 
L 175.519665 34.271947 
L 176.517207 33.957069 
L 177.514749 33.211949 
L 178.512291 31.90192 
L 179.509832 29.922411 
L 180.507374 27.241165 
L 181.504916 23.646268 
L 183.5 15.409881 
L 183.5 15.409881 
" clip-path="url(#p86a0680d72)" style="fill: none; stroke: #2f6f9f; stroke-width: 3; stroke-linecap: round"/>
   </g>
   <g id="line2d_2">
    <path d="M 4.94 59.652 
L 12.920335 55.385957 
L 16.910503 53.089969 
L 19.903128 51.444694 
L 21.898212 50.689704 
L 22.895754 50.482514 
L 23.893296 50.408847 
L 24.890838 50.473542 
L 25.88838 50.671497 
L 27.883464 51.396157 
L 32.871173 53.627928 
L 34.866257 54.043193 
L 36.861341 54.053416 
L 38.856425 53.777193 
L 41.84905 53.302933 
L 43.844134 53.271803 
L 45.839218 53.621802 
L 47.834302 54.317202 
L 51.824469 55.923776 
L 53.819553 56.402988 
L 55.814637 56.604634 
L 59.804804 56.818943 
L 61.799888 57.114785 
L 67.78514 58.293493 
L 69.780223 58.370947 
L 71.775307 58.124569 
L 73.770391 57.521819 
L 75.765475 56.608233 
L 80.753184 53.948216 
L 82.748268 53.181242 
L 84.743352 52.713573 
L 86.738436 52.50325 
L 93.721229 52.099225 
L 99.70648 51.217858 
L 101.701564 51.236166 
L 103.696648 51.521302 
L 106.689274 52.326958 
L 109.681899 53.172014 
L 111.676983 53.475803 
L 113.672067 53.435796 
L 115.667151 53.049823 
L 118.659777 52.056972 
L 122.649944 50.669877 
L 127.637654 49.291656 
L 134.620447 47.402888 
L 136.615531 46.594504 
L 138.610615 45.516874 
L 142.600782 43.138147 
L 144.595866 42.343054 
L 146.59095 41.986468 
L 148.586034 41.957686 
L 151.578659 41.98529 
L 153.573743 41.674385 
L 154.571285 41.34923 
L 155.568827 40.895985 
L 157.563911 39.614206 
L 159.558994 37.943125 
L 162.55162 35.275271 
L 164.546704 33.846538 
L 165.544246 33.332443 
L 166.541788 32.972854 
L 167.53933 32.768862 
L 168.536872 32.710292 
L 170.531955 32.946723 
L 172.527039 33.491286 
L 174.522123 34.229137 
L 176.517207 35.262729 
L 177.514749 35.988829 
L 178.512291 36.928873 
L 179.509832 38.129957 
L 180.507374 39.608055 
L 182.502458 43.50374 
L 183.5 45.540103 
L 183.5 45.540103 
" clip-path="url(#p86a0680d72)" style="fill: none; stroke: #8d5aa7; stroke-width: 3; stroke-linecap: round"/>
   </g>
   <g id="line2d_3">
    <path d="M 4.94 75.19317 
L 7.932626 75.352151 
L 8.930168 75.62547 
L 10.925251 76.524518 
L 15.912961 79.37976 
L 16.910503 79.720977 
L 17.908045 79.91807 
L 18.905587 79.969999 
L 20.90067 79.717415 
L 23.893296 79.045048 
L 25.88838 78.900234 
L 26.885922 78.998102 
L 28.881006 79.537218 
L 30.876089 80.424428 
L 35.863799 82.900135 
L 37.858883 83.452887 
L 38.856425 83.533846 
L 39.853966 83.461598 
L 40.851508 83.231309 
L 41.84905 82.851158 
L 43.844134 81.740302 
L 47.834302 79.20861 
L 49.829385 78.256744 
L 52.822011 76.96372 
L 53.819553 76.380543 
L 54.817095 75.636324 
L 55.814637 74.695605 
L 56.812179 73.542866 
L 58.807263 70.660661 
L 62.79743 64.230705 
L 63.794972 62.959525 
L 64.792514 61.970095 
L 65.790056 61.302884 
L 66.787598 60.971027 
L 67.78514 60.95968 
L 68.782682 61.22856 
L 69.780223 61.717155 
L 74.767933 64.855793 
L 75.765475 65.187695 
L 76.763017 65.345088 
L 77.760559 65.329027 
L 78.758101 65.152561 
L 79.755642 64.836006 
L 81.750726 63.875974 
L 84.743352 61.954911 
L 87.735978 59.965651 
L 89.731061 58.842778 
L 91.726145 57.951031 
L 93.721229 57.268683 
L 95.716313 56.788423 
L 97.711397 56.592139 
L 98.708939 56.648283 
L 99.70648 56.832937 
L 100.704022 57.15748 
L 101.701564 57.62203 
L 103.696648 58.903139 
L 107.686816 61.794897 
L 108.684358 62.329584 
L 109.681899 62.72697 
L 110.679441 62.978716 
L 111.676983 63.090299 
L 113.672067 62.969828 
L 119.657318 61.947345 
L 121.652402 62.052226 
L 123.647486 62.550781 
L 125.64257 63.424064 
L 127.637654 64.596999 
L 129.632737 65.991914 
L 132.625363 68.380769 
L 136.615531 71.638991 
L 138.610615 72.979472 
L 140.605698 74.035859 
L 146.59095 76.843141 
L 149.583575 78.404798 
L 150.581117 78.784725 
L 151.578659 79.030452 
L 152.576201 79.119104 
L 153.573743 79.045616 
L 154.571285 78.824126 
L 156.566369 78.074792 
L 159.558994 76.885365 
L 161.554078 76.494253 
L 163.549162 76.523428 
L 168.536872 77.118539 
L 169.534413 77.04497 
L 170.531955 76.852877 
L 172.527039 76.145356 
L 175.519665 74.794226 
L 176.517207 74.457066 
L 177.514749 74.243354 
L 178.512291 74.171484 
L 179.509832 74.24025 
L 181.504916 74.728886 
L 183.5 75.425526 
L 183.5 75.425526 
" clip-path="url(#p86a0680d72)" style="fill: none; stroke: #67a85c; stroke-width: 3; stroke-linecap: round"/>
   </g>
   <g id="line2d_4">
    <path d="M 4.94 108.908308 
L 6.935084 108.322541 
L 14.915419 105.671332 
L 20.90067 104.24013 
L 22.895754 103.33756 
L 24.890838 102.053984 
L 27.883464 99.652432 
L 30.876089 97.306382 
L 32.871173 96.031923 
L 34.866257 95.019142 
L 36.861341 94.222237 
L 39.853966 93.341292 
L 42.846592 92.753052 
L 46.83676 92.005847 
L 48.831844 91.39848 
L 50.826927 90.542749 
L 52.822011 89.45292 
L 59.804804 85.210761 
L 61.799888 84.460021 
L 62.79743 84.241396 
L 63.794972 84.137547 
L 64.792514 84.151584 
L 65.790056 84.28364 
L 67.78514 84.890063 
L 69.780223 85.906301 
L 71.775307 87.225193 
L 76.763017 90.759629 
L 79.755642 92.538356 
L 89.731061 98.03278 
L 91.726145 98.67155 
L 93.721229 98.947043 
L 95.716313 98.879849 
L 97.711397 98.57149 
L 103.696648 97.464538 
L 106.689274 97.218963 
L 113.672067 96.819483 
L 118.659777 96.440708 
L 124.645028 96.176786 
L 133.622905 95.308935 
L 136.615531 95.071912 
L 139.608156 94.593025 
L 141.60324 94.074797 
L 143.598324 93.350642 
L 145.593408 92.406392 
L 148.586034 90.694844 
L 161.554078 82.992374 
L 163.549162 82.238211 
L 164.546704 82.042521 
L 166.541788 81.993441 
L 169.534413 82.40677 
L 172.527039 82.794069 
L 174.522123 83.022467 
L 175.519665 83.235373 
L 176.517207 83.605199 
L 177.514749 84.216553 
L 178.512291 85.16684 
L 179.509832 86.536703 
L 180.507374 88.36071 
L 181.504916 90.795625 
L 183.5 96.404003 
L 183.5 96.404003 
" clip-path="url(#p86a0680d72)" style="fill: none; stroke: #e08d32; stroke-width: 3; stroke-linecap: round"/>
   </g>
   <g id="line2d_5">
    <path d="M 4.94 129.39407 
L 7.932626 131.972279 
L 8.930168 132.548045 
L 9.927709 132.924794 
L 10.925251 133.084604 
L 11.922793 133.033304 
L 12.920335 132.796421 
L 14.915419 131.92853 
L 17.908045 130.394431 
L 19.903128 129.674112 
L 21.898212 129.285336 
L 29.878547 128.306149 
L 34.866257 127.428392 
L 36.861341 126.869481 
L 38.856425 125.975912 
L 40.851508 124.648106 
L 42.846592 122.890942 
L 44.841676 120.804153 
L 48.831844 116.166874 
L 52.822011 111.623478 
L 54.817095 109.70983 
L 55.814637 108.922132 
L 56.812179 108.277566 
L 57.809721 107.793693 
L 58.807263 107.480986 
L 59.804804 107.341062 
L 60.802346 107.365928 
L 61.799888 107.538494 
L 63.794972 108.224794 
L 66.787598 109.679555 
L 71.775307 112.095966 
L 78.758101 115.445752 
L 82.748268 117.567229 
L 84.743352 118.923452 
L 86.738436 120.650367 
L 88.73352 122.755296 
L 95.716313 130.862508 
L 97.711397 132.624696 
L 98.708939 133.298054 
L 99.70648 133.806144 
L 100.704022 134.135904 
L 101.701564 134.282769 
L 102.699106 134.252239 
L 103.696648 134.06045 
L 105.691732 133.307044 
L 109.681899 131.449886 
L 111.676983 130.951669 
L 113.672067 130.898082 
L 118.659777 131.429468 
L 120.65486 131.201249 
L 122.649944 130.53108 
L 124.645028 129.521346 
L 128.635196 127.361494 
L 130.630279 126.626435 
L 132.625363 126.275708 
L 134.620447 126.328156 
L 136.615531 126.741991 
L 138.610615 127.415237 
L 142.600782 128.896318 
L 144.595866 129.411953 
L 146.59095 129.714472 
L 149.583575 129.890682 
L 153.573743 129.844616 
L 156.566369 129.558696 
L 158.561453 129.201177 
L 160.556536 128.682383 
L 162.55162 127.965144 
L 164.546704 127.011161 
L 166.541788 125.813194 
L 169.534413 123.666908 
L 173.524581 120.682479 
L 175.519665 119.405733 
L 177.514749 118.355856 
L 183.5 115.553068 
L 183.5 115.553068 
" clip-path="url(#p86a0680d72)" style="fill: none; stroke: #2b4278; stroke-width: 3; stroke-linecap: round"/>
   </g>
   <g id="patch_3">
    <path d="M 4.94 156.672 
L 4.94 1.44 
" style="fill: none; stroke: #3a3a3a; stroke-width: 3; stroke-linejoin: miter; stroke-linecap: square"/>
   </g>
   <g id="patch_4">
    <path d="M 4.94 156.672 
L 183.5 156.672 
" style="fill: none; stroke: #3a3a3a; stroke-width: 3; stroke-linejoin: miter; stroke-linecap: square"/>
   </g>
  </g>
 </g>
 <defs>
  <clipPath id="p86a0680d72">
   <rect x="4.94" y="1.44" width="178.56" height="155.232"/>
  </clipPath>
 </defs>
</svg>
